# xmcd
# 
# Track frame offsets:
#     150
#     30615
#     61712
#     95725
#     112438
#     132622
#     164974
#     193217
#     231045
#     251689
#     282747
#     317429
# 
# Disc length: 4603
# 
# Revision: 1
# Processed by: cddbd v1.5.2PL0 Copyright (c) Steve Scherf et al.
# Submitted via: fre:ac v1.0.31
# 
DISCID=bf11f90c
DTITLE=Various Artist - House Definition 4
DYEAR=2000
DGENRE=House
TTITLE0=E-Smoove - Sing Sing Sing
TTITLE1=Afro Medusa - Pasilda
TTITLE2=Joey Negro - Saturday
TTITLE3=Dinamyte - Dynamite (Dancehall Queen)
TTITLE4=Technasia - Force
TTITLE5=Warrior - Warrior
TTITLE6=Floorfila - Anthem #4
TTITLE7=Killahurtz - West on 27th
TTITLE8=Angel Alanis - Fried Grind
TTITLE9=60 Minute Man - Brand nu day
TTITLE10=Hyper logic - Only me
TTITLE11=Moonflower - Chek!
EXTD=
EXTT0=
EXTT1=
EXTT2=
EXTT3=
EXTT4=
EXTT5=
EXTT6=
EXTT7=
EXTT8=
EXTT9=
EXTT10=
EXTT11=
PLAYORDER=
